<svg fill="none" xmlns="http://www.w3.org/2000/svg" viewBox="0 0 282 143"><path d="M254.78 18.036l-120.988-6.12h147.875V0h-167.08v45.09c0 .322-4.801-29.309-6.081-37.682H95.383v41.869c0 .322-5.762-35.106-6.082-39.615H0c6.081 5.153 39.69 34.14 63.695 46.056 11.843 5.798 26.566 6.12 39.689 6.442 6.722.322 13.444.644 18.565 5.797 7.362 7.086 8.962 18.358 2.56 26.732-6.081 8.374-23.365 10.307-23.365 10.307L86.42 122.387V143h32.968l.96-20.291 28.487-20.29c-2.88 2.577-9.922 9.018-19.844 24.799-2.241 3.543-4.161 7.408-5.442 11.273 7.042-6.119 21.765-10.306 39.049-10.306 16.964 0 31.688 4.187 38.73 10.306-1.281-3.865-3.201-7.73-5.442-11.273-10.242-15.781-16.964-22.222-19.844-24.799l28.486 20.29.961 20.291h30.727v-20.613l-14.404-17.714s-21.445-1.288-26.886-10.306c-16.644-25.121 6.082-64.414 59.854-76.331z" fill="#1A2225"/></svg>
